PathFileType	4	(X/Y/Z)	TRC_standard
DataRate	CameraRate	NumFrames	NumMarkers	Units	OrigDataRate	OrigDataStartFrame	OrigNumFrames
100.00	100.00	       4	33	mm	100.00	1676	       2234
Frame#	Time	T10			C7			CLAV			RACR1			LACR1			RPSI			LPSI			RASI			LASI			LTH2			LTH1			RTH2			RTH3			RTH1			RLFC			RTB1			RTB3			RTB2			LLFC			LTB1			LTB3			LTB2			LLMAL			LMMAL			RLMAL			RCAL			RMT5			RMT1			LMT5			LMT1			LTH3			LCAL			LToe			
		X1	Y1	Z1	X2	Y2	Z2	X3	Y3	Z3	X4	Y4	Z4	X5	Y5	Z5	X6	Y6	Z6	X7	Y7	Z7	X8	Y8	Z8	X9	Y9	Z9	X10	Y10	Z10	X11	Y11	Z11	X12	Y12	Z12	X13	Y13	Z13	X14	Y14	Z14	X15	Y15	Z15	X16	Y16	Z16	X17	Y17	Z17	X18	Y18	Z18	X19	Y19	Z19	X20	Y20	Z20	X21	Y21	Z21	X22	Y22	Z22	X23	Y23	Z23	X24	Y24	Z24	X25	Y25	Z25	X26	Y26	Z26	X27	Y27	Z27	X28	Y28	Z28	X29	Y29	Z29	X30	Y30	Z30	X31	Y31	Z31	X32	Y32	Z32	X33	Y33	Z33	
1676	16.750000	710.320740	1227.275513	-484.537537	710.633240	1482.610596	-354.492157	735.142151	1324.708374	-262.920959	558.546997	1426.392090	-310.136749	894.948547	1432.506958	-360.953308	670.576965	1013.784607	-555.178040	758.177185	1011.199402	-553.901184	586.233032	973.652954	-323.511597	840.109863	978.579041	-319.030243	919.673035	779.346680	-341.729340	870.479797	865.298828	-309.866730	597.907349	685.263000	-371.002472	550.601929	756.701782	-383.531830	608.824036	797.976013	-326.822968	593.397034	488.746155	-502.736755	645.037170	373.992279	-503.721924	621.427124	304.719910	-548.386963	650.613403	255.335922	-560.686523	868.576416	513.816406	-263.460114	825.513794	416.524200	-191.049286	854.978577	345.839203	-201.875061	817.662964	297.389618	-178.292023	840.155579	86.416931	-192.858551	791.633484	33.003082	-222.312683	638.147644	92.569908	-672.715515	674.826233	65.402779	-746.995422	640.568787	44.296196	-572.862671	721.097290	48.588165	-547.376953	857.304993	71.159149	-76.997314	797.908875	94.383003	-49.049763	887.631897	723.354858	-282.558502	762.297302	102.956268	-121.025513	0.000000	0.000000	0.000000	
1677	16.760000	711.279541	1226.903320	-484.152863	711.364136	1482.052856	-353.688416	735.801819	1323.946899	-262.260315	559.216553	1425.620239	-309.511841	895.716614	1431.859741	-360.083038	672.070740	1013.404846	-555.065002	759.661987	1010.920776	-553.599304	586.935791	972.917847	-323.698303	840.823853	978.085693	-318.522888	919.728455	778.261658	-340.531433	870.932556	864.704163	-309.082153	598.627625	684.401611	-372.977020	551.565430	756.042297	-385.022766	609.535706	796.970459	-327.805725	594.130981	488.723938	-506.057190	645.426147	373.843414	-508.283234	621.732849	305.207489	-553.804321	650.850220	255.837830	-566.641968	867.831299	512.998718	-263.703491	823.717834	415.943634	-191.374954	853.501648	345.177216	-201.376053	815.826050	296.828613	-178.265945	839.751526	85.425514	-191.821350	789.421204	31.567900	-228.150940	638.012878	94.383362	-680.551147	674.718811	68.182137	-755.182434	640.427917	44.350933	-581.278870	720.908569	48.508514	-555.822754	857.251038	70.616501	-71.355591	793.955933	93.036087	-43.941837	887.193665	722.548340	-282.274597	756.611755	102.555176	-121.215630	0.000000	0.000000	0.000000	
1678	16.770000	712.282288	1226.575562	-483.681183	712.138611	1481.551514	-352.821106	736.504456	1323.254639	-261.523193	559.929016	1424.909790	-308.828156	896.530273	1431.274292	-359.125336	673.556030	1013.062500	-554.818359	761.144104	1010.700928	-553.184753	587.705872	972.221191	-323.743744	841.594849	977.662842	-317.922119	919.755127	777.222168	-339.127350	871.429932	864.183960	-308.198669	599.416260	683.568115	-374.684326	552.590515	755.401184	-386.274506	610.331360	796.015503	-328.601959	594.890808	488.705780	-509.054687	645.799988	373.702332	-512.559448	622.026917	305.763306	-558.981384	651.063782	256.410095	-572.389282	867.119934	512.243530	-263.951019	821.972595	415.276825	-192.002808	852.049927	344.475098	-201.358444	814.026245	296.162262	-178.863129	838.992188	84.572113	-192.037476	787.555054	30.507298	-233.794479	637.856079	96.357155	-688.281250	674.612732	71.210045	-763.251160	640.281677	44.394138	-589.710571	720.709412	48.413334	-564.305054	856.399597	69.579842	-68.779877	790.324707	91.368042	-41.475574	886.814636	721.973267	-281.995331	752.148865	101.683594	-122.834503	0.000000	0.000000	0.000000	
1679	16.780000	713.325928	1226.296021	-483.125183	712.954712	1481.111328	-351.895599	737.248718	1322.638672	-260.713562	560.683167	1424.267578	-308.088898	897.387146	1430.756958	-358.084747	675.026306	1012.762573	-554.440063	762.617432	1010.545288	-552.659424	588.544189	971.566956	-323.648926	842.422546	977.317017	-317.230743	919.784546	776.288635	-337.586121	871.976257	863.745483	-307.222382	600.269165	682.767212	-376.107117	553.673157	754.780823	-387.276215	611.211304	795.117615	-329.206818	595.662964	488.687927	-511.707703	646.144714	373.566772	-516.525940	622.297302	306.388336	-563.893127	651.239685	257.055267	-577.902832	866.449463	511.557648	-264.204956	820.290710	414.533905	-192.918259	850.636963	343.736725	-201.798920	812.278503	295.398682	-180.046417	837.981689	83.830544	-193.449509	786.040161	29.801191	-239.272858	637.672424	98.500481	-695.880310	674.508179	74.508156	-771.165100	640.132813	44.425861	-598.164246	720.501404	48.303650	-572.835693	854.929688	68.117409	-68.810631	787.026428	89.393372	-41.428654	886.484741	721.588196	-281.667236	748.705078	100.461319	-125.679352	0.000000	0.000000	0.000000	
